<?xml version='1.0' encoding='utf-8'?>
<svg xmlns="http://www.w3.org/2000/svg" width="17.672mm" height="23.866mm" clip-rule="evenodd" fill-rule="evenodd" image-rendering="optimizeQuality" shape-rendering="geometricPrecision" text-rendering="geometricPrecision" version="1.0" viewBox="0 0 3089 4171">
 <defs>
  <style type="text/css">
   
    .fil1 {fill:#FF6666}
    .fil0 {fill:#FF9999}
    .fil2 {fill:white;fill-rule:nonzero}
   
  </style>
 </defs>
   <path class="fil0" d="m124 0h2098l867 952v3083c0 75-56 136-124 136h-2841c-68 0-124-61-124-136v-3899c0-75 56-136 124-136z"/>
   <path class="fil1" d="m3089 952h-743c-68 0-124-61-124-136v-816l867 952z"/>
  <path class="fil2" d="m734 2219c23 0 42 8 58 24 16 15 24 35 24 57 0 23-8 42-24 58-16 17-35 25-58 25-22 0-42-8-58-25-16-16-24-35-24-58 0-22 8-42 24-57 16-16 36-24 58-24zm364-418v62c26-25 54-45 84-57 30-13 62-19 96-19 74 0 137 28 189 83 52 56 77 128 77 216 0 84-26 155-80 211-54 57-117 86-190 86-33 0-64-6-92-18s-56-31-84-57v268h-142v-775h142zm150 116c-45 0-82 16-112 46-29 31-44 71-44 120 0 50 15 91 44 122 30 32 67 47 112 47 43 0 80-16 109-47 30-32 45-72 45-121s-15-89-44-120-66-47-110-47zm835-336h142v788h-142v-61c-28 27-56 45-84 57s-59 18-91 18c-74 0-137-29-191-86-54-56-80-127-80-211 0-88 26-160 77-216 52-55 115-83 189-83 35 0 67 6 97 19s57 32 83 57v-282zm-150 336c-45 0-81 16-110 47-30 31-44 71-44 120s15 89 44 121c30 31 67 47 110 47 45 0 82-15 112-47 29-31 44-72 44-122 0-49-15-89-44-120-30-30-67-46-112-46zm368-116h50c1-75 2-119 4-132 4-31 17-56 39-74 23-19 54-28 95-28 30 0 63 7 100 21v108c-21-6-37-9-51-9-16 0-28 4-36 11-6 5-8 16-8 32l-1 71h90v120h-89v448h-143v-448h-50v-120z"/>
</svg>