<?xml version="1.0" standalone="yes"?>
<svg xmlns="http://www.w3.org/2000/svg" width="271" height="320">
<path style="fill:#233e9c; stroke:none;" d="M0 0L0 29L1 29L0 0z"/>
<path style="fill:#2b3421; stroke:none;" d="M1 0C1 47.2918 0 94.6476 0 142C0 177.506 -0.951667 212.926 14.3094 246C57.4881 339.578 198.453 345.556 249.989 258C270.55 223.069 271 181.431 271 142C271 94.6606 270.391 47.2574 270 0L1 0z"/>
<path style="fill:#233e9c; stroke:none;" d="M270 0L270 8L271 8L270 0z"/>
<path style="fill:#e90509; stroke:none;" d="M4 3C4 63.7322 -2.02466 126.498 3.83025 187C5.36274 202.836 7.94941 217.863 13 233C14.6535 237.956 16.4187 245.897 20.6373 249.357C24.8454 252.809 36.684 248.784 42 249.04C51.2025 249.484 59.7409 254.262 69 254.91C77.0254 255.472 83.3037 252.137 91 251C84.4163 238.835 75.9773 252.444 67.2855 251.608C62.5417 251.152 58.4373 244.069 54 242L54 240L73 232C67.8883 221.295 57.2331 224 47 224L43 207L61 208C59.5183 197.367 49.0475 195.93 43.6034 187.91C40.3681 183.145 42 174.524 42 169L58 180L59.1528 163L50.4761 147L57 133L66 149L75.1073 133L73.4529 115.09L86 102L88 122L102.4 112.621L105.742 96.51L119 91L117 108C127.711 107.54 136.025 101.288 137.786 90C142.092 62.412 138 30.9512 138 3L4 3z"/>
<path style="fill:#fcc401; stroke:none;" d="M138 3L138 90L157 89L148 107L165 110.498L179 100.418L193 105L181 120L192 126.059L208.961 119.665L221 132L201 139L210.105 151.397L228.57 153.028L234 168L214 166L217.514 180.926L233.958 190.214L233 206L214 197C213.647 201.328 210.912 206.853 212.617 211C217.278 222.333 230.266 225.18 220.965 237.981C219.48 240.025 217.979 241.473 216 243L206 223C198.445 230.887 196.511 236.616 199.424 247C200.236 249.894 200.832 253.731 204.144 254.681C212.911 257.197 225.287 250.841 234 249.438C238.445 248.723 248.046 250.318 251.351 247.393C255.326 243.875 257.447 234.973 258.845 230C263.174 214.602 264.976 198.887 266.09 183C270.284 123.152 267 62.9442 267 3L138 3z"/>
<path style="fill:#233e9c; stroke:none;" d="M0 30L1 31L0 30z"/>
<path style="fill:#2b3421; stroke:none;" d="M53 35.4653C40.2255 37.702 17.3182 55.0162 38.0039 65.2801C56.2427 74.3299 84.5883 73.8585 104 69.4861C122.498 65.3194 125.098 49.8941 108 40.7963C95.3897 34.0864 79.5058 35.9219 66 36.4908C61.5136 36.6797 57.6121 34.6577 53 35.4653M183 36.5178C170.808 39.0837 147.733 56.0959 168.004 66.4421C185.823 75.5372 214.9 75.6795 234 71.1011C252.527 66.66 256.116 51.0785 238 41.821C225.623 35.4959 210.179 36.9357 197 37.4908C192.155 37.6948 187.987 35.4682 183 36.5178z"/>
<path style="fill:#fcc401; stroke:none;" d="M61 66C61.658 69.9435 76.9832 69.2975 80 67L81 67C83.5404 69.8622 87.4734 68.2531 91 68.0139C98.6033 67.4981 115.805 67.0713 117.458 56.9962C119.169 46.5635 100.382 38.2245 92.0617 41.6034C88.4779 43.0587 87.257 48.1015 85 51L88 39L59 38L55 51L56 38C48.166 39.0558 35.9691 42.2785 33.5764 51.0008C29.9457 64.2359 52.1036 68.0935 61 66z"/>
<path style="fill:#e90509; stroke:none;" d="M193 68C195.925 71.3476 202.008 69.797 206.17 69.9198C215.532 70.1959 246.677 71.8573 247.797 57.9992C248.905 44.2896 223.941 36.3812 217 48L219 48L215 52L218 40C207.539 38.0579 189.569 36.9934 186 49L188 48L188 49L186 53L185 53L189 39C180.124 39.1891 163.378 43.6433 163.378 55C163.378 66.1401 184.748 70.3709 193 68z"/>
<path style="fill:#2b3421; stroke:none;" d="M60 42L58 46L59 46L60 42M92 42L89 46L92 42M189 45L190 46L189 45M221 45L219 48L221 45M188 47L189 48L188 47z"/>
<path style="fill:#e90509; stroke:none;" d="M138 106C146.435 105.9 149.613 99.5434 152 92C140.661 92 138.001 94.5841 138 106z"/>
<path style="fill:#fcc401; stroke:none;" d="M114 95C106.284 98.548 106.067 103.929 106 112C113.517 109.915 117.146 102.568 114 95M137 98L133 106L138 106L137 98z"/>
<path style="fill:#e90509; stroke:none;" d="M169 113C177.49 117.925 183.815 114.974 188 106C179.17 100.879 174.478 105.223 169 113z"/>
<path style="fill:#fcc401; stroke:none;" d="M83 108C76.3817 114.646 73.0718 123.334 79 132C84.8397 124.829 87.3276 117.005 83 108M137 258L137 245C127.096 244.575 116.666 242.01 108 237.124C55.7439 207.663 78.002 129.039 137 129L138 109C113.753 109.003 90.7027 119.449 75.8997 139C51.1619 171.673 57.5233 224.646 93 247.517C98.1856 250.86 104.185 249.652 110 250.808C119.195 252.635 127.549 257.799 137 258z"/>
<path style="fill:#e90509; stroke:none;" d="M138 109L137 118C141.679 120.917 137.654 124.671 137 129C186.343 129.033 215.822 187.363 181.826 224.996C170.152 237.92 153.959 243.662 137 245C140.672 250.87 138.018 251.776 137 258C154.964 256.57 178.141 251.069 190.91 237.961C236.397 191.266 204.203 109.183 138 109z"/>
<path style="fill:#2b3421; stroke:none;" d="M136.279 118.372C132.996 119.815 135.246 125.398 138.57 123.674C141.647 122.077 139.561 116.929 136.279 118.372z"/>
<path style="fill:#dfdfdf; stroke:none;" d="M135 120L135 122L139 123L139 119L135 120z"/>
<path style="fill:#233e9c; stroke:none;" d="M139.333 120.667L139.667 121.333L139.333 120.667z"/>
<path style="fill:#e90509; stroke:none;" d="M193 129C199.965 139.485 205.96 133.379 216 131L210 122L193 129z"/>
<path style="fill:#2b3421; stroke:none;" d="M127 129.439C68.9625 138.575 59.7688 221.339 116 241.135C126.609 244.87 136.986 245.43 148 243.725C155.846 242.511 163.22 239.666 170 235.536C176.592 231.521 182.129 226.311 186.56 220C216.761 176.981 177.058 121.56 127 129.439z"/>
<path style="fill:#fcc401; stroke:none;" d="M129 132L129 159L137 158L137 132L129 132z"/>
<path style="fill:#e90509; stroke:none;" d="M137 132L137 158L145 159L145 132L137 132M104 142L104 143C107.747 146.748 117.989 161.975 123.682 161.079C126.496 160.635 125.986 155.971 125.999 154C126.047 147.001 126 139.999 126 133C118.049 133.694 110.439 137.416 104 142z"/>
<path style="fill:#fcc401; stroke:none;" d="M148 133C148 139.35 145.215 154.333 149.028 159.547C153.653 165.872 168.192 145.056 170 141L148 133z"/>
<path style="fill:#2b3421; stroke:none;" d="M86.757 138.046C83.9652 140.305 87.4722 144.764 90.3966 142.763C93.5659 140.594 89.7584 135.618 86.757 138.046z"/>
<path style="fill:#233e9c; stroke:none;" d="M87 138L88 139L87 138z"/>
<path style="fill:#dfdfdf; stroke:none;" d="M88 138L87 142L91 141L91 139L90 138L88 138z"/>
<path style="fill:#2b3421; stroke:none;" d="M186.343 139.083C183.615 140.775 185.781 145.117 188.721 143.745C192.051 142.19 189.648 137.032 186.343 139.083z"/>
<path style="fill:#fcc401; stroke:none;" d="M57 139C51.3678 148.224 55.2069 151.391 60 160L62 160C64.5108 152.063 62.3119 145.411 57 139z"/>
<path style="fill:#233e9c; stroke:none;" d="M186 139L187 140L186 139z"/>
<path style="fill:#dfdfdf; stroke:none;" d="M187 139L186 143L190 142L190 140L189 139L187 139z"/>
<path style="fill:#233e9c; stroke:none;" d="M86 140L87 141L86 140M90 141L91 142L90 141M88 142L89 143L88 142M189 142L190 143L189 142z"/>
<path style="fill:#fcc401; stroke:none;" d="M101 144C98.6608 146.062 94.5129 148.64 94.0602 152.015C93.2003 158.425 108.261 169.661 113 173C114.816 170.605 118.811 167.203 118.794 164C118.761 157.896 105.66 147.283 101 144z"/>
<path style="fill:#e90509; stroke:none;" d="M155 163L155 164L163 173C167.856 169.579 180.095 160.738 181.654 154.91C182.67 151.116 175.884 144.33 172.09 145.346C165.95 146.989 159.34 158.465 155 163M210 154L212 163L230 164L228 155L210 154M90 155L81 178L111 178C108.576 169.364 97.1846 160.061 90 155z"/>
<path style="fill:#fcc401; stroke:none;" d="M165 178L193 178L186 157C178.887 160.317 167.161 170.306 165 178M137 212L135 203L135 202L137 195L128 195L128 177L137 177L137 161C105.79 165.206 103.848 211.294 137 212z"/>
<path style="fill:#e90509; stroke:none;" d="M137 161L137 177L147 177C147 186.687 149.001 194.958 137 195L139 202L139 203L137 212C171.945 211.904 171.573 162.507 137 161z"/>
<path style="fill:#2b3421; stroke:none;" d="M136 166L138 170L136 166M123 171L123 174L127 173L123 171M149 171L149 174L152 174L152 171L149 171z"/>
<path style="fill:#233e9c; stroke:none;" d="M270 173C270 230.339 245.378 288.517 189 311C178.91 315.024 167.957 318.774 157 319L157 320L271 320L271 217C271 204.532 274.807 184.456 270 173z"/>
<path style="fill:#fcc401; stroke:none;" d="M45 174C45 185.198 47.2893 192.116 59 196C56.391 185.041 55.7255 180.17 45 174z"/>
<path style="fill:#2b3421; stroke:none;" d="M128 177L128 195L145.972 193.397L147 177L128 177z"/>
<path style="fill:#e90509; stroke:none;" d="M130 180C130 187.38 129.441 191.899 138 192L138 180L130 180z"/>
<path style="fill:#fcc401; stroke:none;" d="M138 180L138 192L144 192L144 180L138 180M81 181L81 192L109 191L109 181L81 181z"/>
<path style="fill:#e90509; stroke:none;" d="M166 181L166 192L194 193L194 181L166 181z"/>
<path style="fill:#2b3421; stroke:none;" d="M68.757 185.046C65.9652 187.305 69.4722 191.764 72.3966 189.763C75.5659 187.594 71.7584 182.618 68.757 185.046M202.458 185.083C199.419 187.037 202.455 191.656 205.407 189.713C208.219 187.863 205.452 183.158 202.458 185.083z"/>
<path style="fill:#e90509; stroke:none;" d="M216 184C214.628 194.924 221.776 197.694 231 202C231.945 190.022 227.545 187.3 216 184z"/>
<path style="fill:#233e9c; stroke:none;" d="M69 185L70 186L69 185z"/>
<path style="fill:#dfdfdf; stroke:none;" d="M70 185L69 189L73 188L73 186L72 185L70 185z"/>
<path style="fill:#2b3421; stroke:none;" d="M119 186L119 187L123 185L119 186M154 188L157 185L154 188z"/>
<path style="fill:#dfdfdf; stroke:none;" d="M203 185L202 189L206 189L205 185L203 185z"/>
<path style="fill:#233e9c; stroke:none;" d="M68 187L69 188L68 187M72 188L73 189L72 188M0 190L0 320L119 320L119 319C75.1594 317.113 30.3705 282.588 13.4275 243C8.92575 232.482 5.45877 221.259 3.42438 210C2.28717 203.706 2.44491 195.813 0 190z"/>
<path style="fill:#e90509; stroke:none;" d="M81 195C81.6507 199.828 83.6127 213.006 89.213 214.654C94.9714 216.349 107.984 199.282 111 195L81 195z"/>
<path style="fill:#fcc401; stroke:none;" d="M185 218L193 196C187.239 196 170.856 192.627 166.492 196.028C163.82 198.111 166.504 201.222 168.074 203C172.59 208.112 178.321 216.11 185 218z"/>
<path style="fill:#2b3421; stroke:none;" d="M122 197L122 200L125 200L125 197L122 197M150 197L153 200L152 197L150 197z"/>
<path style="fill:#fcc401; stroke:none;" d="M111 199L102 208C98.0177 211.983 85.6173 227.793 101 227.793C104.518 227.793 107.394 223.344 109.424 221C116.888 212.378 120.603 207.771 111 199z"/>
<path style="fill:#2b3421; stroke:none;" d="M135 202L135 203L139 203L135 202z"/>
<path style="fill:#e90509; stroke:none;" d="M154 210L171 231L172 231L182 222C178.784 217.434 169.147 203.218 163.09 203.207C159.987 203.201 156.338 208.183 154 210z"/>
<path style="fill:#fcc401; stroke:none;" d="M47 210L49 221L66 221C63.0879 210.358 56.8934 210.781 47 210z"/>
<path style="fill:#e90509; stroke:none;" d="M104 232L126 240C126 234.275 128.916 216.63 124.4 212.662C119.668 208.504 105.991 228.161 104 232z"/>
<path style="fill:#fcc401; stroke:none;" d="M149 241L169 233C166.442 228.909 154.903 210.716 149.314 213.327C144.379 215.633 148.132 236.327 149 241z"/>
<path style="fill:#e90509; stroke:none;" d="M210 213C206.327 221.764 212.587 230.439 217 238L218 238C225.312 227.658 218.296 220.754 210 213z"/>
<path style="fill:#fcc401; stroke:none;" d="M129 214L129 241L137 242L137 215L129 214z"/>
<path style="fill:#e90509; stroke:none;" d="M137 215L137 242C150.931 241.874 144.432 225.056 144 215L137 215z"/>
<path style="fill:#2b3421; stroke:none;" d="M88.1998 228.971C84.1594 230.077 86.9369 235.854 90.5664 234.339C93.8927 232.95 91.3812 228.099 88.1998 228.971z"/>
<path style="fill:#233e9c; stroke:none;" d="M87 230L88 231L87 230z"/>
<path style="fill:#dfdfdf; stroke:none;" d="M87 231L87 233L88 234L90 234L91 230L87 231z"/>
<path style="fill:#2b3421; stroke:none;" d="M181.757 231.043C178.924 233.299 182.658 237.69 185.382 235.292C188.124 232.879 184.536 228.83 181.757 231.043z"/>
<path style="fill:#dfdfdf; stroke:none;" d="M182 231L182 235L186 234L186 232L182 231z"/>
<path style="fill:#233e9c; stroke:none;" d="M90 233L91 234L90 233M181 233L182 234L181 233z"/>
<path style="fill:#fcc401; stroke:none;" d="M59 241C66.2605 251.271 72.1802 247.029 82 243C75.6502 232.023 68.4785 235.606 59 241z"/>
<path style="fill:#233e9c; stroke:none;" d="M185 234L186 235L185 234z"/>
<path style="fill:#e90509; stroke:none;" d="M198 255L195 239C180.924 245.274 186.973 251.412 198 255z"/>
<path style="fill:#2b3421; stroke:none;" d="M135.618 248.046C132.769 250.298 136.62 254.893 139.382 252.343C142.136 249.8 138.451 245.807 135.618 248.046z"/>
<path style="fill:#dfdfdf; stroke:none;" d="M136 248L135 251L140 251L139 248L136 248z"/>
<path style="fill:#233e9c; stroke:none;" d="M135 249L136 250L135 249M139 249L140 250L139 249z"/>
<path style="fill:#fcc401; stroke:none;" d="M181 249L182 250L181 249z"/>
<path style="fill:#233e9c; stroke:none;" d="M24 253C27.5279 271.244 50.5391 287.434 65 296.996C109.752 326.589 177.553 324.071 219 289.916C230.508 280.433 243.677 266.696 248 252C234.899 248.989 221.004 256.53 208 257.829C195.94 259.035 185.207 252.49 173 253.039C160.699 253.593 149.299 260.355 137 260.896C126.376 261.363 116.645 253.871 106 253.09C94.0499 252.214 84.3578 257.819 73 257.981C63.5474 258.116 55.1401 253.818 46 252.325C38.6445 251.123 31.3298 252.849 24 253M137 252L138 253L137 252z"/>
</svg>
