<?xml version="1.0" standalone="yes"?>
<svg xmlns="http://www.w3.org/2000/svg" width="300" height="350">
<path style="fill:#080401; stroke:none;" d="M0 0L0 350L300 350L300 0L0 0z"/>
<path style="fill:#e90509; stroke:none;" d="M18 18C18 78.7322 11.9753 141.498 17.8302 202C19.3627 217.836 21.9494 232.863 27 248C28.6535 252.956 30.4187 260.897 34.6373 264.357C38.8454 267.809 50.6839 263.784 56 264.04C65.2025 264.484 73.7409 269.262 83 269.91C91.0254 270.472 97.3038 267.137 105 266C98.4163 253.835 89.9773 267.444 81.2855 266.608C76.5416 266.152 72.4373 259.069 68 257L68 255L87 247C81.8883 236.295 71.2331 239 61 239L57 222L75 223C73.5183 212.367 63.0475 210.93 57.6034 202.91C54.3682 198.145 56 189.524 56 184L72 195L73.1528 178L64.4807 163L71 148L80 164L89.1073 148L87.4529 130.09L100 117L102 137L116.4 127.621L119.742 111.51L133 106L131 123C141.711 122.54 150.025 116.288 151.786 105C156.092 77.412 152 45.9512 152 18L18 18z"/>
<path style="fill:#fcc401; stroke:none;" d="M152 18L152 105L171 104L162 122L179 125.498L193 115.418L207 120L194 133C196.862 136.515 201.969 141.916 207 140.89C211.935 139.883 217.727 133.462 222.91 134.665C227.517 135.734 231.8 143.193 234 147L215 154L224.105 166.397L242.57 168.028L248 183L228 181L231.434 196.006L247.933 205.225L247 221L229 211C227.611 215.094 224.86 221.775 226.502 226C230.961 237.48 244.421 239.966 234.965 252.981C233.48 255.025 231.979 256.473 230 258L220 238L219 238C214.791 244.711 205.023 263.583 217.303 269.397C224.534 272.82 238.69 266.534 246 264.888C251.338 263.686 262.331 266.082 266.006 261.682C278.929 246.211 278.367 216.871 280.17 198C285.855 138.496 281 77.6779 281 18L152 18z"/>
<path style="fill:#233e9c; stroke:none;" d="M281 32L281 52L282 52L281 32z"/>
<path style="fill:#080401; stroke:none;" d="M67 50.4653C54.2255 52.702 31.3182 70.0162 52.0039 80.2801C70.2428 89.3299 98.5883 88.8585 118 84.4861C136.498 80.3194 139.098 64.8941 122 55.7963C109.39 49.0864 93.5058 50.9219 80 51.4908C75.5136 51.6797 71.6122 49.6577 67 50.4653z"/>
<path style="fill:#233e9c; stroke:none;" d="M198 51L199 52L198 51z"/>
<path style="fill:#080401; stroke:none;" d="M199 51.5046C187.403 53.0282 162.071 69.5371 181.043 80.5833C198.678 90.8512 227.733 89.5623 247 85.9051C265.799 82.3368 270.312 66.9359 252 57.3279C239.979 51.0208 224.017 52.3354 211 52.9413C206.874 53.1334 203.167 50.9572 199 51.5046z"/>
<path style="fill:#233e9c; stroke:none;" d="M203 51L204 52L203 51M217 51L217 52L228 52L217 51M69 52L70 53L69 52M194 52L195 53L194 52M206 52L207 53L206 52M213 52L214 53L213 52M232 52L233 53L232 52M65 53L66 54L65 53z"/>
<path style="fill:#fcc401; stroke:none;" d="M75 81C75.6873 85.1194 90.9531 84.3204 94 82L95 82C97.5451 84.8674 101.469 83.2429 105 83.0146C112.464 82.5323 130.105 82.0687 131.574 71.9962C133.126 61.351 114.46 53.2838 106.045 56.6034C102.167 58.133 101.083 62.7845 99 66L102 54L73 53L70 66L69 66L70 53C61.8429 53.7122 47.6426 58.0498 47.1528 68C46.564 79.9598 66.3639 83.0323 75 81z"/>
<path style="fill:#233e9c; stroke:none;" d="M75 53L76 54L75 53M84 53L85 54L84 53M100 53L101 54L100 53M191 53L192 54L191 53M210.667 53.3333L211.333 53.6667L210.667 53.3333M235 53L236 54L235 53M62 54L63 55L62 54M69 54L70 55L69 54M77.6667 54.3333L78.3333 54.6667L77.6667 54.3333M81.6667 54.3333L82.3333 54.6667L81.6667 54.3333M102 54L103 55L102 54M188 54L189 55L188 54z"/>
<path style="fill:#e90509; stroke:none;" d="M207 83C209.925 86.3476 216.008 84.797 220.17 84.9198C229.532 85.1959 260.677 86.8573 261.797 72.9992C262.905 59.2896 237.941 51.3812 231 63L233 63L229 67L232 55C221.539 53.0579 203.569 51.9934 200 64L202 63L202 64L200 68L199 68L203 54C194.124 54.1891 177.378 58.6433 177.378 70C177.378 81.14 198.748 85.371 207 83z"/>
<path style="fill:#233e9c; stroke:none;" d="M238 54L239 55L238 54M59 55L60 56L59 55M71 55L72 56L71 55M105.667 55.3333L106.333 55.6667L105.667 55.3333M186 55L187 56L186 55M248 55L249 56L248 55M57 56L58 57L57 56M101 56L102 57L101 56M104 56L105 57L104 56M117 56L118 57L117 56M184 56L185 57L184 56M250 56L251 57L250 56M68 57L68 62L69 62L68 57M74 57L72 61L73 61L74 57M103 57L104 58L103 57M119 57L120 58L119 57M182 57L183 58L182 57M252 57L253 58L252 57M53 58L54 59L53 58M70 58L71 63L72 63L70 58M105 58L103 61L105 58M121 58L122 59L121 58M122 59L123 60L122 59M255 59L256 60L255 59M99 60L100 61L99 60M101 60L102 61L101 60M124 60L125 61L124 60z"/>
<path style="fill:#080401; stroke:none;" d="M203 60L204 61L203 60M235 60L233 63L235 60M71 61L72 62L71 61M102 61L103 62L102 61z"/>
<path style="fill:#233e9c; stroke:none;" d="M125 61L126 62L125 61M126 62L127 63L126 62z"/>
<path style="fill:#080401; stroke:none;" d="M202 62L203 63L202 62z"/>
<path style="fill:#233e9c; stroke:none;" d="M259 62L260 63L259 62M101 63L102 64L101 63M176 63L177 64L176 63M260 63L261 64L260 63M47 64L48 65L47 64M100 64L101 65L100 64M261 64L262 65L261 64M69 65L70 66L69 65M99 65L100 66L99 65M129 65L130 66L129 65M175 65L176 66L175 65M130 66L131 67L130 66M263 67L264 68L263 67M131 68L132 69L131 68M174.333 69.6667L174.667 70.3333L174.333 69.6667M264 69L265 70L264 69M47 72L48 73L47 72M48 74L49 75L48 74M175 74L176 75L175 74M49 75L50 76L49 75M130 75L131 76L130 75M50 76L51 77L50 76M129 76L130 77L129 76M176 76L177 77L176 76M52 77L53 78L52 77M54 78L55 79L54 78M126 78L127 79L126 78M57.6667 79.3333L58.3333 79.6667L57.6667 79.3333M124 79L125 80L124 79M61 80L62 81L61 80M121 80L122 81L121 80M180 80L181 81L180 80M65.6667 81.3333L66.3333 81.6667L65.6667 81.3333M73.6667 81.3333L74.3333 81.6667L73.6667 81.3333M118 81L119 82L118 81M182 81L183 82L182 81M259 81L260 82L259 81M70.6667 82.3333L71.3333 82.6667L70.6667 82.3333M80 82L80 84L82 84L80 82M94.3333 82.6667L94.6667 83.3333L94.3333 82.6667M109.667 82.3333L110.333 82.6667L109.667 82.3333M113.667 82.3333L114.333 82.6667L113.667 82.3333M185 82L186 83L185 82M257 82L258 83L257 82M85.6667 83.3333L86.3333 83.6667L85.6667 83.3333M92 83L93 84L92 83M100 83L101 84L100 83M102 83L102 84L106 84L102 83M188 83L189 84L188 83M255 83L256 84L255 83M191.667 84.3333L192.333 84.6667L191.667 84.3333M252 84L253 85L252 84M196 85L197 86L196 85M249 85L250 86L249 85M201.667 86.3333L202.333 86.6667L201.667 86.3333M243 86L243 87L246 87L243 86M209 87L209 88L213 88L209 87M232 87L232 88L237 88L232 87M153 104L153 105L158 105L153 104M170 104L171 105L170 104M152 105L153 106L152 105M169 106L170 107L169 106z"/>
<path style="fill:#e90509; stroke:none;" d="M152 121C160.435 120.9 163.613 114.543 166 107C154.661 107 152.001 109.584 152 121z"/>
<path style="fill:#233e9c; stroke:none;" d="M168 108L169 109L168 108M127 110L128 111L127 110z"/>
<path style="fill:#fcc401; stroke:none;" d="M120 127C129.331 124.749 128.08 117.974 130 110C120.426 112.224 120.025 118.015 120 127z"/>
<path style="fill:#233e9c; stroke:none;" d="M167 110L168 111L167 110M124 111L125 112L124 111M129.333 111.667L129.667 112.333L129.333 111.667M121 112L122 113L121 112M151 112L152 113L151 112M166 112L167 113L166 112z"/>
<path style="fill:#fcc401; stroke:none;" d="M151 113L147 121L152 121L151 113z"/>
<path style="fill:#233e9c; stroke:none;" d="M165 114L166 115L165 114M149 115L150 116L149 115M196 115L197 116L196 115M282 115L282 136L283 136L282 115M120 116L120 119L121 119L120 116M164 116L165 117L164 116M198 116L199 117L198 116M148 117L149 118L148 117z"/>
<path style="fill:#e90509; stroke:none;" d="M183 128C191.49 132.925 197.815 129.974 202 121C193.17 115.879 188.478 120.223 183 128z"/>
<path style="fill:#233e9c; stroke:none;" d="M200 117L201 118L200 117M128.333 118.667L128.667 119.333L128.333 118.667M163 118L164 119L163 118M202 118L203 119L202 118M204 119L205 120L204 119M146 120L147 121L146 120M162 120L163 121L162 120M206 120L207 121L206 120M164.667 122.333L165.333 122.667L164.667 122.333M96 123L89 131L96 123z"/>
<path style="fill:#fcc401; stroke:none;" d="M97 123C89.097 130.936 89.4108 136.49 92 147C100.059 141.302 101.267 131.88 97 123z"/>
<path style="fill:#233e9c; stroke:none;" d="M169 123L170 124L169 123M98 124L98 128L99 128L98 124M127 124L128 125L127 124M139 124L139 125L142 125L139 124z"/>
<path style="fill:#fcc401; stroke:none;" d="M151 273L151 260C126.91 258.099 104.799 245.122 95.4529 222C80.2386 184.359 111.892 144.108 151 144L152 124C127.681 124.003 104.759 134.383 89.8997 154C65.129 186.702 71.4206 239.58 107 262.517C112.006 265.744 117.434 264.527 123 265.666C132.492 267.609 141.247 272.792 151 273z"/>
<path style="fill:#e90509; stroke:none;" d="M152 124L151 133C155.679 135.917 151.654 139.671 151 144C200.343 144.033 229.822 202.363 195.826 239.996C184.152 252.92 167.959 258.662 151 260C154.672 265.87 152.018 266.776 151 273C168.964 271.57 192.141 266.069 204.91 252.961C250.397 206.266 218.203 124.183 152 124z"/>
<path style="fill:#233e9c; stroke:none;" d="M173 124L174 125L173 124M119.333 125.667L119.667 126.333L119.333 125.667M125 125L126 126L125 125M134 125L135 126L134 125M176 125L177 126L176 125M122 126L123 127L122 126M130 126L131 127L130 126M179 126L180 127L179 126M127 127L128 128L127 127M200 127L201 128L200 127M124 128L125 129L124 128M199 128L200 129L199 128M121 129L122 130L121 129M198 129L199 130L198 129M119 130L120 131L119 130M197 130L198 131L197 130M117 131L118 132L117 131M196 131L197 132L196 131M89.3333 132.667L89.6667 133.333L89.3333 132.667M115 132L116 133L115 132M195 132L196 133L195 132M113 133L114 134L113 133z"/>
<path style="fill:#080401; stroke:none;" d="M149.607 134.043C146.829 136.253 150.595 140.537 153.218 138.154C155.85 135.763 152.326 131.881 149.607 134.043z"/>
<path style="fill:#233e9c; stroke:none;" d="M222.667 133.333L223.333 133.667L222.667 133.333M111 134L112 135L111 134M149 134L150 135L149 134z"/>
<path style="fill:#dfdfdf; stroke:none;" d="M149 135L149 137L153 138L153 134L149 135z"/>
<path style="fill:#233e9c; stroke:none;" d="M194 134L195 135L194 134M220 134L221 135L220 134M224 134L225 135L224 134M99 135L99 138L100 138L99 135M153.333 135.667L153.667 136.333L153.333 135.667M218 135L219 136L218 135M225 135L226 136L225 135M108 136L109 137L108 136M197 136L198 137L197 136M216 136L217 137L216 136M149 137L150 138L149 137M214 137L215 138L214 137z"/>
<path style="fill:#e90509; stroke:none;" d="M207 144C213.965 154.485 219.961 148.379 230 146L224 137L207 144z"/>
<path style="fill:#233e9c; stroke:none;" d="M105 138L106 139L105 138M212 138L213 139L212 138M90.3333 139.667L90.6667 140.333L90.3333 139.667M104 139L105 140L104 139M201 139L202 140L201 139M210 139L211 140L210 139M202 140L203 141L202 140M208 140L209 141L208 140M229 140L230 141L229 140M203 141L204 142L203 141M206 141L207 142L206 141M230 141L231 142L230 141M100 142L101 143L100 142M231 142L232 143L231 142M99 143L100 144L99 143M98 144L99 145L98 144M142.667 144.333L143.333 144.667L142.667 144.333z"/>
<path style="fill:#080401; stroke:none;" d="M144 144.428C134.68 145.763 125.946 148.553 118 153.699C88.5252 172.79 83.1061 215.22 107.174 240.961C120.875 255.615 142.51 261.74 162 258.725C170.21 257.455 178.004 254.397 185 249.91C236.845 216.66 203.353 135.925 144 144.428z"/>
<path style="fill:#233e9c; stroke:none;" d="M91.3333 145.667L91.6667 146.333L91.3333 145.667M97 145L98 146L97 145M137 145L138 146L137 145M96 146L97 147L96 146M133 146L134 147L133 146M146 146L146 147L152 147L146 146M95 147L96 148L95 147M130 147L131 148L130 147M142 147L143 148L142 147z"/>
<path style="fill:#fcc401; stroke:none;" d="M143 175L151 173L151 147C138.321 147.045 140.113 165.234 143 175z"/>
<path style="fill:#e90509; stroke:none;" d="M151 147L151 173L159 174L159 147L151 147z"/>
<path style="fill:#233e9c; stroke:none;" d="M162 147L161 163L162 163L162 147M231 147L232 148L231 147M94 148L95 149L94 148z"/>
<path style="fill:#e90509; stroke:none;" d="M118 157L118 158C121.747 161.748 131.989 176.975 137.682 176.079C140.496 175.635 139.986 170.971 139.999 169C140.047 162.001 140 154.999 140 148C132.049 148.694 124.439 152.416 118 157z"/>
<path style="fill:#fcc401; stroke:none;" d="M162 148C162 154.348 159.214 169.336 163.028 174.547C167.722 180.962 182.263 160.102 184 156L162 148z"/>
<path style="fill:#233e9c; stroke:none;" d="M166 148L167 149L166 148M229 148L230 149L229 148M93 149L94 150L93 149M125 149L126 150L125 149M170 149L171 150L170 149M226 149L227 150L226 149M123 150L124 151L123 150M172 150L173 151L172 150M121 151L122 152L121 151M175 151L176 152L175 151M221 151L222 152L221 151z"/>
<path style="fill:#080401; stroke:none;" d="M100 153L100 154C103.192 154.135 103.865 154.808 104 158C106.45 154.298 103.856 152.436 100 153z"/>
<path style="fill:#233e9c; stroke:none;" d="M104 152L105 153L104 152M177 152L178 153L177 152M218 152L219 153L218 152M90 153L91 154L90 153M101 153L99 157L100 157L101 153z"/>
<path style="fill:#dfdfdf; stroke:none;" d="M102 153L101 157L105 156L105 154L104 153L102 153z"/>
<path style="fill:#233e9c; stroke:none;" d="M105 153L106 154L105 153M118 153L119 154L118 153M179 153L180 154L179 153z"/>
<path style="fill:#080401; stroke:none;" d="M200.343 154.083C197.615 155.775 199.781 160.118 202.721 158.745C206.051 157.19 203.648 152.032 200.343 154.083z"/>
<path style="fill:#233e9c; stroke:none;" d="M216 153L217 154L216 153M70 154L71 155L70 154z"/>
<path style="fill:#fcc401; stroke:none;" d="M71 154C64.9627 163.173 69.2136 166.411 74 175L76 175C78.5605 166.92 76.4136 160.534 71 154z"/>
<path style="fill:#233e9c; stroke:none;" d="M89 154L90 155L89 154M200 154L199 157L200 157L200 154z"/>
<path style="fill:#dfdfdf; stroke:none;" d="M201 154L200 158L204 157L204 155L203 154L201 154z"/>
<path style="fill:#233e9c; stroke:none;" d="M203 154L204 155L203 154M72 155L73 156L72 155z"/>
<path style="fill:#080401; stroke:none;" d="M99 155L100 156L99 155z"/>
<path style="fill:#233e9c; stroke:none;" d="M115 155L116 156L115 155M182 155L183 156L182 155M69 156L70 157L69 156z"/>
<path style="fill:#080401; stroke:none;" d="M100 156L103 159L100 156z"/>
<path style="fill:#233e9c; stroke:none;" d="M104 156L105 157L104 156M216 156L217 157L216 156M73 157L74 158L73 157M87 157L88 158L87 157M102 157L104 159L104 157L102 157M105 157L106 158L105 157M184 157L185 158L184 157M203 157L204 158L203 157M101 158L102 159L101 158M111 158L112 159L111 158M183 158L184 159L183 158M201.667 158.333L202.333 158.667L201.667 158.333M74 159L75 160L74 159M110 159L111 160L110 159M114 159L113 161L114 159z"/>
<path style="fill:#fcc401; stroke:none;" d="M115 159C101.861 169.798 116.248 180.426 127 188C128.817 185.604 132.81 182.203 132.794 179C132.763 172.747 119.725 162.328 115 159z"/>
<path style="fill:#233e9c; stroke:none;" d="M116 159L117 160L116 159M182 159L183 160L182 159z"/>
<path style="fill:#e90509; stroke:none;" d="M169 178L169 179L177 188C181.856 184.579 194.095 175.738 195.654 169.91C196.67 166.116 189.884 159.33 186.09 160.346C179.95 161.989 173.34 173.465 169 178z"/>
<path style="fill:#233e9c; stroke:none;" d="M218 159L219 160L218 159M85 160L86 161L85 160M109 160L110 161L109 160M117 160L118 161L117 160M181 160L182 161L181 160M66 161L67 162L66 161M75 161L76 162L75 161M108 161L109 162L108 161M118 161L119 162L118 161M219 161L220 162L219 161M84 162L85 163L84 162M107 162L108 163L107 162M119 162L120 163L119 162M66 163L67 164L66 163M76 163L77 164L76 163M106 163L107 164L106 163M120 163L121 164L120 163M220 163L221 164L220 163M105 164L106 165L105 164M221 165L222 166L221 165M68 166L69 167L68 166M107 166L108 167L107 166M222 166L223 167L222 166M69 167L70 168L69 167M78.3333 167.667L78.6667 168.333L78.3333 167.667M106 167L107 168L106 167M175 167L176 168L175 167M102 168L103 169L102 168M174 168L175 169L174 168M173 169L174 170L173 169z"/>
<path style="fill:#e90509; stroke:none;" d="M224 169L226 178L244 179L242 170L224 169z"/>
<path style="fill:#233e9c; stroke:none;" d="M244.333 169.667L244.667 170.333L244.333 169.667M71 170L72 171L71 170M77 170L78 171L77 170M80 170L81 171L80 170z"/>
<path style="fill:#e90509; stroke:none;" d="M104 170L95 193L125 193C122.576 184.364 111.185 175.061 104 170z"/>
<path style="fill:#233e9c; stroke:none;" d="M126 170L127 171L126 170M172 170L173 171L172 170M100 171L101 172L100 171M127 171L128 172L127 171M198 171L194 176L198 171M79 172L80 173L79 172M128 172L129 173L128 172z"/>
<path style="fill:#fcc401; stroke:none;" d="M179 193L208 193L200 172C192.219 175.468 181.348 184.636 179 193z"/>
<path style="fill:#233e9c; stroke:none;" d="M73 173L74 174L73 173M76 173L77 174L76 173M129 173L130 174L129 173M148 173L148 174L152 174L148 173M200 173L201 174L200 173M245 173L246 174L245 173M98 174L99 175L98 174M130 174L131 175L130 174M142 174L143 175L142 174M144 174L145 175L144 174M75 175L76 176L75 175M78 175L79 176L78 175M162 175L163 176L162 175M97 176L98 177L97 176M146.667 176.333L147.333 176.667L146.667 176.333z"/>
<path style="fill:#fcc401; stroke:none;" d="M151 227L151 210L142 210L142 192L151 192L149 182L151 176C119.796 180.205 117.655 226.29 151 227z"/>
<path style="fill:#e90509; stroke:none;" d="M151 176L151 192L161 192C161 201.687 163.001 209.958 151 210L153 217L153 218L151 227C185.945 226.904 185.573 177.507 151 176z"/>
<path style="fill:#233e9c; stroke:none;" d="M246.333 176.667L246.667 177.333L246.333 176.667M143 177L144 178L143 177M281 177L281 185L282 185L281 177M77 178L78 179L77 178M96 178L97 179L96 178M140 178L141 179L140 178M138 179L139 180L138 179M247 180L248 181L247 180M95 181L96 182L95 181M204 181L205 182L204 181M227.333 181.667L227.667 182.333L227.333 181.667M235 181L235 182L239 182L235 181M76 182L77 183L76 182M120 182L121 183L120 182M134 182L135 183L134 182M149 182L150 183L149 182z"/>
<path style="fill:#080401; stroke:none;" d="M149 183L152 185L151 182L149 183z"/>
<path style="fill:#233e9c; stroke:none;" d="M246.667 182.333L247.333 182.667L246.667 182.333M94 183L95 184L94 183M121 183L122 184L121 183M133 183L134 184L133 183M205 183L206 184L205 183M122 184L123 185L122 184M132 184L133 185L132 184M150 184L151 185L150 184M123 185L124 186L123 185M128 185L129 186L128 185M131 185L132 186L131 185M124 186L125 187L124 186M137 186L138 187L137 186z"/>
<path style="fill:#080401; stroke:none;" d="M137 187L137 188L140 189L140 186L137 187M163 186L163 189L166 189L166 186L163 186z"/>
<path style="fill:#233e9c; stroke:none;" d="M206.333 186.667L206.667 187.333L206.333 186.667M228.333 186.667L228.667 187.333L228.333 186.667M75.3333 187.667L75.6667 188.333L75.3333 187.667M93 187L94 188L93 187M125 187L126 188L125 187M129 188L130 189L129 188M137 188L138 189L137 188z"/>
<path style="fill:#fcc401; stroke:none;" d="M59 189C59 201.254 62.0858 205.782 73 212C70.8728 200.542 69.9746 195.313 59 189z"/>
<path style="fill:#233e9c; stroke:none;" d="M60 189L61 190L60 189M61 190L62 191L61 190M128 190L129 191L128 190M207.333 190.667L207.667 191.333L207.333 190.667M92.3333 191.667L92.6667 192.333L92.3333 191.667M127 192L128 193L127 192z"/>
<path style="fill:#080401; stroke:none;" d="M142 192L142 209L159.397 208.972L161 192L142 192z"/>
<path style="fill:#233e9c; stroke:none;" d="M65 193L66 194L65 193M180 193L180 194L208 194L180 193M66 194L67 195L66 194M151 194L151 195L158 195L151 194M229.333 194.667L229.667 195.333L229.333 194.667M126.333 195.667L126.667 196.333L126.333 195.667z"/>
<path style="fill:#e90509; stroke:none;" d="M144 195C144 202.38 143.441 206.899 152 207L152 195L144 195z"/>
<path style="fill:#fcc401; stroke:none;" d="M152 195L152 207L158 207L158 195L152 195z"/>
<path style="fill:#233e9c; stroke:none;" d="M280 195L280 200L281 200L280 195M74 196L74 204L75 204L74 196M94.3333 196.667L94.6667 197.333L94.3333 196.667z"/>
<path style="fill:#fcc401; stroke:none;" d="M123 206L124 196C115.996 196 104.88 193.972 97.2284 196.318C93.7488 197.385 92.7377 203.701 95.6034 205.972C100.625 209.952 116.687 206 123 206z"/>
<path style="fill:#e90509; stroke:none;" d="M180 196L180 207L208 208L208 196L180 196z"/>
<path style="fill:#233e9c; stroke:none;" d="M231 196L232 197L231 196M58 197L58 202L59 202L58 197M70 197L71 198L70 197M123 197L123 200L124 200L123 197M71 198L72 199L71 198M236 198L237 199L236 198M82 199L81 204L82 204L82 199z"/>
<path style="fill:#080401; stroke:none;" d="M83 199L83 200L86 205L87 205C87.54 201.325 86.5357 200.073 83 199z"/>
<path style="fill:#233e9c; stroke:none;" d="M86 199L87 200L86 199M91 199L91 204L92 204L91 199z"/>
<path style="fill:#080401; stroke:none;" d="M216.458 200.083C213.419 202.037 216.455 206.656 219.407 204.713C222.219 202.863 219.452 198.158 216.458 200.083z"/>
<path style="fill:#e90509; stroke:none;" d="M230 199C228.628 209.924 235.776 212.693 245 217C245.945 205.022 241.545 202.3 230 199z"/>
<path style="fill:#233e9c; stroke:none;" d="M238 199L239 200L238 199z"/>
<path style="fill:#080401; stroke:none;" d="M82 200L83 201L82 200z"/>
<path style="fill:#dfdfdf; stroke:none;" d="M84 200L83 204L87 203L87 201L86 200L84 200z"/>
<path style="fill:#233e9c; stroke:none;" d="M87 200L88 201L87 200z"/>
<path style="fill:#080401; stroke:none;" d="M134 200L136 203L137 202L136 200L134 200z"/>
<path style="fill:#233e9c; stroke:none;" d="M136 200L137 201L136 200z"/>
<path style="fill:#080401; stroke:none;" d="M168 203L171 200L168 203z"/>
<path style="fill:#233e9c; stroke:none;" d="M216 200L217 201L216 200z"/>
<path style="fill:#dfdfdf; stroke:none;" d="M217 200L216 204L220 204L219 200L217 200z"/>
<path style="fill:#233e9c; stroke:none;" d="M219 200L220 201L219 200M240 200L241 201L240 200M59 202L60 203L59 202M134 202L135 203L134 202M215 202L216 203L215 202M245 202L246 203L245 202z"/>
<path style="fill:#080401; stroke:none;" d="M82 203L82 205L84 205L82 203z"/>
<path style="fill:#233e9c; stroke:none;" d="M86 203L87 204L86 203M247 203L248 204L247 203M62 204L63 205L62 204M83 206L86 204L83 206M123.333 204.667L123.667 205.333L123.333 204.667M217.667 204.333L218.333 204.667L217.667 204.333M63 205L64 206L63 205M94 206L95 207L94 206M108 206L108 207L123 207L108 206M66 207L67 208L66 207M72 207L72 210L73 210L72 207M126 207L127 208L126 207M248 207L248 210L249 210L248 207M279 207L279 211L280 211L279 207M67 208L68 209L67 208z"/>
<path style="fill:#e90509; stroke:none;" d="M95 210C95.6507 214.828 97.6127 228.006 103.213 229.654C108.971 231.349 121.984 214.282 125 210L95 210z"/>
<path style="fill:#233e9c; stroke:none;" d="M142 209L142 210L152 210L142 209M70 210L71 211L70 210M127 210L128 211L127 210z"/>
<path style="fill:#fcc401; stroke:none;" d="M179 210C178.735 218.449 191.443 229.378 198 234C202.606 227.016 206.612 219.5 207 211L179 210z"/>
<path style="fill:#233e9c; stroke:none;" d="M190 210L190 211L200 211L190 210M71 211L72 212L71 211M75.3333 211.667L75.6667 212.333L75.3333 211.667M92.3333 211.667L92.6667 212.333L92.3333 211.667M207.333 211.667L207.667 212.333L207.333 211.667M228 211L229 212L228 211M136 212L137 213L136 212z"/>
<path style="fill:#080401; stroke:none;" d="M137 212L136 213L136 214L137 215L138 215L139 214L139 213L137 212z"/>
<path style="fill:#233e9c; stroke:none;" d="M138 212L139 213L138 212z"/>
<path style="fill:#080401; stroke:none;" d="M164 212L167 215L166 212L164 212z"/>
<path style="fill:#233e9c; stroke:none;" d="M178 212L179 213L178 212M231 212L232 213L231 212M128 213L129 214L128 213M233 213L234 214L233 213z"/>
<path style="fill:#fcc401; stroke:none;" d="M125 214C117.202 221.798 95.7203 238.027 117 244C124.685 233.048 138.29 226.138 125 214z"/>
<path style="fill:#233e9c; stroke:none;" d="M126 214L127 215L126 214M136 214L137 215L136 214M138 214L139 215L138 214M178 214L179 215L178 214M235 214L236 215L235 214M93.3333 215.667L93.6667 216.333L93.3333 215.667M179 215L180 216L179 215M227.333 215.667L227.667 216.333L227.333 215.667M76.3333 216.667L76.6667 217.333L76.3333 216.667M127 216L128 217L127 216M130 216L131 217L130 216z"/>
<path style="fill:#080401; stroke:none;" d="M150 216L150 219L153 218L153 217L150 216z"/>
<path style="fill:#233e9c; stroke:none;" d="M180 216L181 217L180 216M206 216L207 217L206 216M238 216L239 217L238 216M247 216L247 219L248 219L247 216M278 216L278 219L279 219L278 216z"/>
<path style="fill:#e90509; stroke:none;" d="M168 225L185 246L186 246L196 237C192.784 232.434 183.147 218.218 177.09 218.207C173.987 218.201 170.338 223.183 168 225z"/>
<path style="fill:#233e9c; stroke:none;" d="M181 217L182 218L181 217M240 217L241 218L240 217M182 218L183 219L182 218M242 218L243 219L242 218M94 219L95 220L94 219M129 219L130 220L129 219M183 219L184 220L183 219M205 219L206 220L205 219M77 220L78 221L77 220M130 220L131 221L130 220M184 220L185 221L184 220M226 220L227 221L226 220M131 221L132 222L131 221M185 221L186 222L185 221M95 222L96 223L95 222M132 222L133 223L132 222M136 222L137 223L136 222M186 222L187 223L186 222M204 222L205 223L204 222M133.333 223.667L133.667 224.333L133.333 223.667M187 223L188 224L187 223M225 223L226 224L225 223M78 224L79 225L78 224M96 224L97 225L96 224M114 224L115 225L114 224M139 224L140 225L139 224M188 224L189 225L188 224M203 224L204 225L203 224M277.333 224.667L277.667 225.333L277.333 224.667z"/>
<path style="fill:#fcc401; stroke:none;" d="M61 225L63 236L80 236C77.1444 225.565 70.8793 225.424 61 225z"/>
<path style="fill:#233e9c; stroke:none;" d="M66 225L66 226L71 226L66 225M113 225L114 226L113 225M132 225L133 226L132 225M141 225L142 226L141 225M225 225L226 226L225 225M76 226L77 227L76 226M79 226L80 227L79 226M97 226L98 227L97 226M112 226L113 227L112 226M131 226L132 227L131 226z"/>
<path style="fill:#e90509; stroke:none;" d="M118 247L140 255C140 249.275 142.916 231.63 138.4 227.662C133.668 223.504 119.991 243.161 118 247z"/>
<path style="fill:#233e9c; stroke:none;" d="M144 226L145 227L144 226M202 226L203 227L202 226M226 226L227 227L226 226M111 227L112 228L111 227M148 227L148 228L151 228L148 227z"/>
<path style="fill:#fcc401; stroke:none;" d="M163 256L183 248C180.181 243.493 170.177 227.109 164.144 228.06C158.335 228.976 161.969 251.669 163 256z"/>
<path style="fill:#233e9c; stroke:none;" d="M166 227L167 228L166 227M61 228L62 229L61 228M77 228L78 229L77 228M98 228L99 229L98 228M110 228L111 229L110 228M161 228L162 229L161 228M201 228L202 229L201 228z"/>
<path style="fill:#e90509; stroke:none;" d="M224 228C220.327 236.764 226.587 245.439 231 253L232 253C239.312 242.659 232.296 235.754 224 228z"/>
<path style="fill:#233e9c; stroke:none;" d="M80 229L81 230L80 229M109 229L110 230L109 229z"/>
<path style="fill:#fcc401; stroke:none;" d="M142 229L142 256L151 257L151 230L142 229z"/>
<path style="fill:#233e9c; stroke:none;" d="M145.667 229.333L146.333 229.667L145.667 229.333M99 230L100 231L99 230M108 230L109 231L108 230z"/>
<path style="fill:#e90509; stroke:none;" d="M151 230L151 257C164.931 256.874 158.432 240.056 158 230L151 230z"/>
<path style="fill:#233e9c; stroke:none;" d="M229 230L230 231L229 230M276 230L277 231L276 230M78 231L79 232L78 231M81 231L82 232L81 231M107 231L108 232L107 231M199 231L200 232L199 231M230 231L231 232L230 231M62.3333 232.667L62.6667 233.333L62.3333 232.667M106 232L107 233L106 232M126 232L127 233L126 232M170 232L171 233L170 232M231 232L232 233L231 232M79 233L80 234L79 233M82 233L83 234L82 233M101 233L102 234L101 233M105.333 233.667L105.667 234.333L105.333 233.667M125 233L126 234L125 233M171 233L172 234L171 233M124 234L125 235L124 234M80 235L81 236L80 235M83 235L84 236L83 235M275 235L276 236L275 235M103 236L104 237L103 236M234 236L235 237L234 236M84 237L85 238L84 237M104 237L105 238L104 237M219 237L220 238L219 237M235 237L236 238L235 237M108 238L109 239L108 238M161 238L161 244L162 244L161 238M175 238L176 239L175 238M220 238L221 239L220 238M236 238L237 239L236 238M85 239L86 240L85 239M109 239L110 240L109 239M176 239L177 240L176 239M274 239L275 240L274 239M110 240L111 241L110 240M119 240L120 241L119 240M177 240L178 241L177 240M217 240L218 241L217 240M221 240L222 241L221 240M111 241L112 242L111 241M118 241L119 242L118 241M87 242L88 243L87 242M117 242L118 243L117 242M216 242L217 243L216 242M222 242L223 243L222 242M239 242L240 243L239 242M102 243L104 245L104 243L102 243M215 243L216 244L215 243M240 243L241 244L240 243M273 243L274 244L273 243M100 244L102 246L100 244z"/>
<path style="fill:#080401; stroke:none;" d="M101.667 244.333L102.333 244.667L101.667 244.333M104 244L106 246L104 244z"/>
<path style="fill:#233e9c; stroke:none;" d="M105 244L106 245L105 244M115 244L116 245L115 244M180 244L181 245L180 244M89 245L90 246L89 245z"/>
<path style="fill:#080401; stroke:none;" d="M100 245C100.678 249.06 103.401 250.973 106 247L105 247L101 249L100 245z"/>
<path style="fill:#dfdfdf; stroke:none;" d="M101 246L101 248L102 249L104 249L105 245L101 246z"/>
<path style="fill:#233e9c; stroke:none;" d="M112 245L113 246L112 245M181 245L182 246L181 245z"/>
<path style="fill:#080401; stroke:none;" d="M195.757 246.043C192.924 248.299 196.658 252.69 199.382 250.292C202.124 247.879 198.536 243.83 195.757 246.043z"/>
<path style="fill:#233e9c; stroke:none;" d="M90 246L91 247L90 246M105 246L107 248L107 246L105 246M113 246L114 247L113 246M182 246L183 247L182 246z"/>
<path style="fill:#dfdfdf; stroke:none;" d="M196 246L196 250L200 249L200 247L196 246z"/>
<path style="fill:#233e9c; stroke:none;" d="M213 246L214 247L213 246M239 246L240 247L239 246M272 246L273 247L272 246M195.333 247.667L195.667 248.333L195.333 247.667M101 248L102 249L101 248M104 248L105 249L104 248M116 248L117 249L116 248M181 248L182 249L181 248M86 249L87 250L86 249z"/>
<path style="fill:#fcc401; stroke:none;" d="M73 256C80.3002 266.327 86.1794 262.083 96 258C90.6018 246.433 81.8128 250.876 73 256z"/>
<path style="fill:#233e9c; stroke:none;" d="M89 249L90 250L89 249M117 249L118 250L117 249M199 249L200 250L199 249M226 249L227 250L226 249M237 249L238 250L237 249M271 249L272 250L271 249M84 250L85 251L84 250M93 250L94 251L93 250M119 250L120 251L119 250M178 250L179 251L178 250M197.667 250.333L198.333 250.667L197.667 250.333M210.333 250.667L210.667 251.333L210.333 250.667M82 251L83 252L82 251M94 251L95 252L94 251M176 251L177 252L176 251M227 251L228 252L227 251M95 252L96 253L95 252M122 252L123 253L122 252M173 252L174 253L173 252M235 252L236 253L235 252M270 252L271 253L270 252M77 253L78 254L77 253M96 253L97 254L96 253M124 253L125 254L124 253M171 253L172 254L171 253M228 253L229 254L228 253M234 253L235 254L234 253M75 254L76 255L75 254M97 254L98 255L97 254M162.333 254.667L162.667 255.333L162.333 254.667M168 254L169 255L168 254z"/>
<path style="fill:#e90509; stroke:none;" d="M212 270L209 254C194.924 260.274 200.973 266.412 212 270z"/>
<path style="fill:#233e9c; stroke:none;" d="M211.333 254.667L211.667 255.333L211.333 254.667M269 254L270 255L269 254M73 255L74 256L73 255M98 255L99 256L98 255M129 255L130 256L129 255M164 255L165 256L164 255M229 255L230 256L229 255M233 255L234 256L233 255M72 256L73 257L72 256M99 256L100 257L99 256M132 256L133 257L132 256M143.667 256.333L144.333 256.667L143.667 256.333M232 256L233 257L232 256M268 256L269 257L268 256M73 257L74 258L73 257M96 257L97 258L96 257M100 257L101 258L100 257M135 257L136 258L135 257M230 257L231 258L230 257M74 258L75 259L74 258M94 258L95 259L94 258M139.667 258.333L140.333 258.667L139.667 258.333M212 258L213 259L212 258M75 259L76 260L75 259M92 259L93 260L92 259M146 259L146 260L152 260L146 259M76 260L77 261L76 260M90 260L91 261L90 260M104 260L105 261L104 260M77 261L78 262L77 261M105 261L106 262L105 261M266 261L267 262L266 261M78 262L79 263L78 262M85 262L86 263L85 262M149 262L149 265L150 265L149 262z"/>
<path style="fill:#080401; stroke:none;" d="M149 263L149 264C152.192 264.135 152.865 264.808 153 268L149 267C154.522 270.236 156.592 261.272 149 263z"/>
<path style="fill:#233e9c; stroke:none;" d="M213 262L214 263L213 262M79 263L80 264L79 263M83 263L84 264L83 263M108 263L109 264L108 263z"/>
<path style="fill:#dfdfdf; stroke:none;" d="M150 263L149 266L154 266L153 263L150 263z"/>
<path style="fill:#233e9c; stroke:none;" d="M257.667 263.333L258.333 263.667L257.667 263.333M265 263L266 264L265 263M80.6667 264.333L81.3333 264.667L80.6667 264.333z"/>
<path style="fill:#080401; stroke:none;" d="M148.333 264.667L148.667 265.333L148.333 264.667z"/>
<path style="fill:#233e9c; stroke:none;" d="M153 264L154 265L153 264M194.333 264.667L194.667 265.333L194.333 264.667z"/>
<path style="fill:#fcc401; stroke:none;" d="M195.333 264.667L195.667 265.333L195.333 264.667z"/>
<path style="fill:#233e9c; stroke:none;" d="M196.333 264.667L196.667 265.333L196.333 264.667M247 264L247 265L250 265L247 264M263.667 264.333L264.333 264.667L263.667 264.333M121.667 265.333L122.333 265.667L121.667 265.333M214.333 265.667L214.667 266.333L214.333 265.667M243 265L244 266L243 265M126 266L127 267L126 266M148.667 266.333L149.333 266.667L148.667 266.333M153 266L154 267L153 266M239 266L240 267L239 266M37 269C70.4337 329.053 153.276 348.528 213 318.244C232.689 308.26 255.63 289.071 262 267C249.427 263.292 234.574 271.174 222 272.714C209.873 274.198 198.456 267.474 186 268.039C173.716 268.597 162.348 275.455 150 275.74C138.334 276.009 127.074 268.034 115 267.594C103.863 267.188 93.9552 274.13 83 272.711C67.123 270.654 53.2175 263.51 37 269M130 267L131 268L130 267M151.667 267.333L152.333 267.667L151.667 267.333M235 267L236 268L235 267M133 268L134 269L133 268M150 268L151 269L150 268M230.667 268.333L231.333 268.667L230.667 268.333M136 269L137 270L136 269M215 269L216 270L215 269M225.667 269.333L226.333 269.667L225.667 269.333M138 270L139 271L138 270M216 270L216 271L220 271L216 270M141 271L142 272L141 271M144 272L145 273L144 272z"/>
</svg>
